<svg width="48" height="48" viewBox="0 0 48 48" fill="none" xmlns="http://www.w3.org/2000/svg">
<path d="M20.7004 24.0859C20.7004 29.2718 16.4964 33.4757 11.3106 33.4757C6.12464 33.4757 1.92065 29.2718 1.92065 24.0859C1.92065 18.9 6.12464 14.696 11.3106 14.696C16.4964 14.696 20.7004 18.9 20.7004 24.0859Z" fill="#4F5985"/>
<path d="M24.3605 14.5243C22.2821 14.5243 20.3624 15.2007 18.8069 16.3438C20.8302 18.3033 22.0899 21.0468 22.0899 24.0859C22.0899 27.0228 20.9138 29.6839 19.0089 31.6281C20.5274 32.6836 22.371 33.304 24.3605 33.304C29.5464 33.304 33.7504 29.1001 33.7504 23.9142C33.7504 18.7283 29.5464 14.5243 24.3605 14.5243Z" fill="#8968AB"/>
<path d="M35.1462 24.0294C35.1462 27.9488 33.054 31.3789 29.926 33.2657H46.0793L35.2369 14.4859L33.2508 17.9259C34.4454 19.6614 35.1462 21.7632 35.1462 24.0294Z" fill="#FDD656"/>
</svg>
